<?xml version="1.0" standalone="no"?>
<!DOCTYPE svg PUBLIC "-//W3C//DTD SVG 20010904//EN"
 "http://www.w3.org/TR/2001/REC-SVG-20010904/DTD/svg10.dtd">
<svg version="1.0" xmlns="http://www.w3.org/2000/svg"
 width="320.000000pt" height="320.000000pt" viewBox="0 0 320.000000 320.000000"
 preserveAspectRatio="xMidYMid meet">
<metadata>
Created by potrace 1.11, written by Peter Selinger 2001-2013
</metadata>
<g transform="translate(0.000000,320.000000) scale(0.100000,-0.100000)"
fill="#000000" stroke="none">
<path d="M1423 2984 c-18 -9 -49 -39 -68 -66 -20 -27 -40 -46 -45 -43 -6 3
-10 -1 -10 -10 0 -12 -6 -14 -27 -9 -16 4 -31 12 -35 17 -4 7 -47 5 -130 -7
-68 -9 -166 -23 -218 -30 l-95 -13 55 -6 c54 -7 396 -27 452 -27 21 0 28 5 28
20 0 27 17 25 24 -3 5 -23 8 -24 243 -38 l238 -15 185 33 c188 34 216 40 208
48 -3 4 -588 39 -782 47 l-60 3 34 34 35 34 170 -7 c352 -13 741 -35 758 -42
41 -15 40 -47 -12 -263 -27 -113 -53 -224 -58 -246 -5 -22 -14 -39 -20 -38 -6
1 -13 -20 -17 -47 -4 -28 -11 -50 -16 -50 -6 0 -10 -13 -10 -28 0 -55 -83
-415 -94 -405 -4 4 -6 -3 -5 -17 4 -47 -1 -71 -13 -64 -8 5 -9 2 -5 -10 7 -19
-10 -104 -25 -123 -5 -6 -10 -25 -10 -42 -1 -16 -6 -29 -12 -28 -6 1 -11 -5
-11 -13 0 -8 -3 -17 -7 -20 -4 -4 -9 -22 -10 -42 -2 -20 -6 -34 -9 -32 -4 2
-10 -7 -13 -20 -3 -13 -9 -32 -12 -43 -5 -15 -4 -15 5 -3 18 25 12 3 -9 -36
-12 -20 -19 -39 -16 -42 3 -3 2 -10 -2 -16 -5 -6 -26 -84 -48 -173 -37 -155
-58 -210 -47 -123 3 22 3 40 0 40 -15 0 -37 -63 -37 -107 0 -26 -5 -65 -9 -87
-9 -38 2 -39 13 -1 3 11 3 2 0 -20 -3 -22 -9 -42 -12 -45 -8 -6 -13 -120 -6
-120 3 0 15 7 27 15 l22 14 -2 -147 c-2 -81 -8 -187 -14 -235 -7 -57 -8 -92
-1 -99 5 -5 31 -8 58 -6 42 3 49 6 52 26 2 13 -2 30 -10 39 -18 23 -18 328 1
402 7 29 14 64 14 78 0 17 10 31 38 49 21 13 40 24 43 24 2 0 7 -35 10 -77 4
-43 12 -103 18 -133 6 -30 12 -62 13 -70 4 -36 17 -57 51 -79 30 -21 48 -25
109 -25 68 -1 76 1 105 29 110 105 179 431 135 638 -25 121 -64 157 -167 157
-72 0 -68 -16 -68 270 0 162 4 261 10 265 19 12 10 35 -15 41 -27 7 -30 23
-15 79 8 27 8 26 7 -12 -1 -23 2 -45 6 -49 3 -4 6 31 6 77 -1 70 14 149 89
484 50 220 93 416 96 436 8 48 -9 84 -52 111 -30 18 -61 22 -265 34 -128 7
-338 16 -467 19 -208 6 -239 4 -267 -11z m-32 -67 c-10 -9 -11 -8 -5 6 3 10 9
15 12 12 3 -3 0 -11 -7 -18z m-28 -47 c-8 -31 -23 -34 -23 -6 0 16 6 26 14 26
9 0 12 -7 9 -20z m-93 -40 c0 -5 -5 -10 -11 -10 -5 0 -7 5 -4 10 3 6 8 10 11
10 2 0 4 -4 4 -10z m991 -866 c-53 -236 -140 -619 -212 -928 -13 -54 -25 -94
-26 -89 -5 15 127 609 237 1068 27 116 50 214 50 219 0 5 2 7 5 4 3 -3 -21
-126 -54 -274z m-24 -280 c0 -30 -3 -41 -9 -31 -7 13 -1 77 7 77 2 0 3 -21 2
-46z m-12 -78 c0 -15 -4 -21 -9 -16 -5 5 -6 16 -3 24 9 22 12 20 12 -8z m-20
-25 c3 -5 1 -12 -5 -16 -5 -3 -10 1 -10 9 0 18 6 21 15 7z m-48 -243 c-3 -8
-6 -5 -6 6 -1 11 2 17 5 13 3 -3 4 -12 1 -19z m-137 -426 c0 -15 -2 -15 -10
-2 -13 20 -13 33 0 25 6 -3 10 -14 10 -23z m-119 -19 c-10 -17 -10 -16 -11 3
0 23 13 41 18 25 2 -6 -1 -18 -7 -28z m525 -48 c-3 -8 -1 -15 5 -15 14 0 7
-42 -8 -48 -9 -2 -13 9 -13 37 0 23 5 41 11 41 6 0 9 -7 5 -15z m-439 -17 c-3
-8 -6 -5 -6 6 -1 11 2 17 5 13 3 -3 4 -12 1 -19z m-10 -40 c-3 -8 -6 -5 -6 6
-1 11 2 17 5 13 3 -3 4 -12 1 -19z m-20 -90 c-3 -8 -6 -5 -6 6 -1 11 2 17 5
13 3 -3 4 -12 1 -19z m-13 -62 c-3 -21 -8 -35 -11 -32 -2 2 -1 20 3 40 3 21 8
35 11 32 2 -2 1 -20 -3 -40z"/>
<path d="M1258 2883 c7 -3 16 -2 19 1 4 3 -2 6 -13 5 -11 0 -14 -3 -6 -6z"/>
<path d="M892 2638 c7 -20 48 -23 48 -4 0 11 -9 16 -26 16 -16 0 -24 -5 -22
-12z"/>
<path d="M956 2642 c-13 -12 -5 -22 19 -22 14 0 25 4 25 9 0 10 -36 21 -44 13z"/>
<path d="M1018 2628 c17 -17 42 -19 42 -2 0 9 -10 14 -27 14 -21 0 -24 -3 -15
-12z"/>
<path d="M1080 2631 c0 -5 7 -11 15 -15 8 -3 15 -1 15 3 0 5 -7 11 -15 15 -8
3 -15 1 -15 -3z"/>
<path d="M1140 2621 c0 -5 7 -12 16 -15 22 -9 24 -8 24 9 0 8 -9 15 -20 15
-11 0 -20 -4 -20 -9z"/>
<path d="M1200 2615 c0 -8 9 -15 20 -15 11 0 20 7 20 15 0 8 -9 15 -20 15 -11
0 -20 -7 -20 -15z"/>
<path d="M1260 2605 c0 -9 9 -15 25 -15 16 0 25 6 25 15 0 9 -9 15 -25 15 -16
0 -25 -6 -25 -15z"/>
<path d="M1320 2603 c0 -7 11 -13 25 -13 15 0 25 6 25 15 0 10 -9 14 -25 13
-14 -1 -25 -8 -25 -15z"/>
<path d="M1382 2604 c4 -24 48 -33 48 -10 0 9 -4 16 -9 16 -5 0 -17 3 -26 6
-13 5 -16 2 -13 -12z"/>
<path d="M863 2598 c2 -7 12 -13 22 -13 10 0 20 6 23 13 2 7 -6 12 -23 12 -17
0 -25 -5 -22 -12z"/>
<path d="M930 2595 c0 -8 9 -15 20 -15 24 0 27 15 4 24 -22 9 -24 8 -24 -9z"/>
<path d="M1440 2596 c0 -11 10 -16 31 -16 38 0 35 24 -4 28 -19 2 -27 -1 -27
-12z"/>
<path d="M1512 2592 c4 -22 48 -29 48 -8 0 9 -3 16 -7 17 -5 0 -16 2 -26 4
-13 2 -17 -2 -15 -13z"/>
<path d="M990 2590 c0 -5 6 -10 14 -10 8 0 18 5 21 10 3 6 -3 10 -14 10 -12 0
-21 -4 -21 -10z"/>
<path d="M1570 2586 c0 -11 10 -16 31 -16 38 0 35 24 -4 28 -19 2 -27 -1 -27
-12z"/>
<path d="M1640 2585 c0 -12 21 -25 41 -25 21 0 7 28 -16 32 -16 3 -25 1 -25
-7z"/>
<path d="M1170 2575 c0 -8 9 -15 20 -15 11 0 20 7 20 15 0 8 -9 15 -20 15 -11
0 -20 -7 -20 -15z"/>
<path d="M1230 2575 c-8 -9 -6 -14 6 -19 24 -9 31 -7 37 8 7 19 -29 28 -43 11z"/>
<path d="M1290 2565 c0 -9 9 -15 25 -15 16 0 25 6 25 15 0 9 -9 15 -25 15 -16
0 -25 -6 -25 -15z"/>
<path d="M1350 2566 c0 -18 31 -29 44 -16 8 8 7 14 -4 20 -22 14 -40 12 -40
-4z"/>
<path d="M893 2558 c2 -7 12 -13 22 -13 10 0 20 6 23 13 2 7 -6 12 -23 12 -17
0 -25 -5 -22 -12z"/>
<path d="M1410 2555 c0 -9 9 -15 25 -15 16 0 25 6 25 15 0 9 -9 15 -25 15 -16
0 -25 -6 -25 -15z"/>
<path d="M1477 2556 c-4 -9 3 -16 16 -20 28 -7 48 11 27 24 -21 14 -37 12 -43
-4z"/>
<path d="M968 2553 c6 -2 18 -2 25 0 6 3 1 5 -13 5 -14 0 -19 -2 -12 -5z"/>
<path d="M1540 2545 c0 -9 9 -15 25 -15 16 0 25 6 25 15 0 9 -9 15 -25 15 -16
0 -25 -6 -25 -15z"/>
<path d="M1606 2545 c-4 -11 2 -15 24 -15 32 0 40 14 14 24 -24 9 -31 7 -38
-9z"/>
<path d="M1165 2540 c-3 -5 -1 -10 4 -10 6 0 11 5 11 10 0 6 -2 10 -4 10 -3 0
-8 -4 -11 -10z"/>
<path d="M1190 2535 c0 -9 9 -15 25 -15 16 0 25 6 25 15 0 9 -9 15 -25 15 -16
0 -25 -6 -25 -15z"/>
<path d="M1672 2538 c7 -20 48 -23 48 -4 0 11 -9 16 -26 16 -16 0 -24 -5 -22
-12z"/>
<path d="M1252 2528 c5 -15 48 -18 48 -3 0 6 -11 11 -26 13 -18 3 -25 0 -22
-10z"/>
<path d="M1320 2526 c0 -11 9 -16 26 -16 31 0 28 23 -4 28 -15 2 -22 -2 -22
-12z"/>
<path d="M860 2521 c0 -9 24 -21 41 -21 5 0 9 7 9 15 0 9 -9 15 -25 15 -14 0
-25 -4 -25 -9z"/>
<path d="M920 2515 c0 -8 9 -15 20 -15 24 0 27 15 4 24 -22 9 -24 8 -24 -9z"/>
<path d="M1380 2515 c0 -9 9 -15 25 -15 16 0 25 6 25 15 0 9 -9 15 -25 15 -16
0 -25 -6 -25 -15z"/>
<path d="M1440 2515 c0 -9 9 -15 25 -15 16 0 25 6 25 15 0 9 -9 15 -25 15 -16
0 -25 -6 -25 -15z"/>
<path d="M1510 2505 c0 -9 9 -15 25 -15 16 0 25 6 25 15 0 9 -9 15 -25 15 -16
0 -25 -6 -25 -15z"/>
<path d="M1570 2505 c0 -9 9 -15 24 -15 30 0 42 15 20 24 -27 10 -44 7 -44 -9z"/>
<path d="M1160 2495 c0 -9 9 -15 25 -15 16 0 25 6 25 15 0 9 -9 15 -25 15 -16
0 -25 -6 -25 -15z"/>
<path d="M1224 2499 c-8 -14 5 -29 27 -29 10 0 19 6 19 14 0 16 -37 28 -46 15z"/>
<path d="M1640 2495 c0 -9 9 -15 25 -15 16 0 25 6 25 15 0 9 -9 15 -25 15 -16
0 -25 -6 -25 -15z"/>
<path d="M1287 2494 c-11 -12 3 -24 29 -24 16 0 24 5 22 13 -5 13 -40 22 -51
11z"/>
<path d="M892 2478 c7 -20 48 -23 48 -4 0 11 -9 16 -26 16 -16 0 -24 -5 -22
-12z"/>
<path d="M1350 2475 c0 -9 9 -15 25 -15 16 0 25 6 25 15 0 9 -9 15 -25 15 -16
0 -25 -6 -25 -15z"/>
<path d="M1410 2475 c0 -9 9 -15 25 -15 16 0 25 6 25 15 0 9 -9 15 -25 15 -16
0 -25 -6 -25 -15z"/>
<path d="M950 2470 c0 -5 12 -10 26 -10 14 0 23 4 19 10 -3 6 -15 10 -26 10
-10 0 -19 -4 -19 -10z"/>
<path d="M1010 2470 c0 -5 7 -10 16 -10 8 0 12 5 9 10 -3 6 -10 10 -16 10 -5
0 -9 -4 -9 -10z"/>
<path d="M1473 2468 c2 -7 14 -13 27 -13 13 0 25 6 28 13 2 8 -7 12 -28 12
-21 0 -30 -4 -27 -12z"/>
<path d="M1540 2465 c0 -9 9 -15 25 -15 16 0 25 6 25 15 0 9 -9 15 -25 15 -16
0 -25 -6 -25 -15z"/>
<path d="M2282 2460 c0 -14 2 -19 5 -12 2 6 2 18 0 25 -3 6 -5 1 -5 -13z"/>
<path d="M1137 2463 c-14 -13 -6 -23 18 -23 16 0 25 6 25 15 0 15 -31 21 -43
8z"/>
<path d="M1190 2455 c0 -8 4 -15 9 -15 5 0 16 -3 25 -6 10 -4 16 -1 16 9 0 14
-20 27 -41 27 -5 0 -9 -7 -9 -15z"/>
<path d="M1602 2458 c7 -19 45 -21 51 -4 5 12 -1 16 -24 16 -20 0 -29 -4 -27
-12z"/>
<path d="M1250 2445 c0 -9 9 -15 25 -15 16 0 25 6 25 15 0 9 -9 15 -25 15 -16
0 -25 -6 -25 -15z"/>
<path d="M1320 2446 c0 -18 31 -29 44 -16 8 8 7 14 -4 20 -22 14 -40 12 -40
-4z"/>
<path d="M1680 2450 c0 -5 9 -10 20 -10 11 0 20 5 20 10 0 6 -9 10 -20 10 -11
0 -20 -4 -20 -10z"/>
<path d="M1380 2435 c0 -9 9 -15 25 -15 16 0 25 6 25 15 0 9 -9 15 -25 15 -16
0 -25 -6 -25 -15z"/>
<path d="M1444 2438 c-7 -11 13 -28 34 -28 6 0 12 6 12 14 0 17 -38 28 -46 14z"/>
<path d="M1507 2434 c-11 -12 3 -24 29 -24 15 0 24 6 24 15 0 15 -40 21 -53 9z"/>
<path d="M1160 2426 c0 -2 9 -6 20 -9 11 -3 18 -1 14 4 -5 9 -34 13 -34 5z"/>
<path d="M1573 2418 c2 -7 12 -13 22 -13 10 0 20 6 23 13 2 7 -6 12 -23 12
-17 0 -25 -5 -22 -12z"/>
<path d="M1233 2413 c9 -2 23 -2 30 0 6 3 -1 5 -18 5 -16 0 -22 -2 -12 -5z"/>
<path d="M1305 2404 c9 -9 18 -14 21 -11 9 9 -6 27 -22 27 -13 0 -13 -2 1 -16z"/>
<path d="M1655 2410 c-3 -5 3 -10 14 -10 12 0 21 5 21 10 0 6 -6 10 -14 10 -8
0 -18 -4 -21 -10z"/>
<path d="M890 2401 c0 -15 16 -22 34 -15 25 9 19 24 -9 24 -14 0 -25 -4 -25
-9z"/>
<path d="M950 2395 c0 -9 9 -15 25 -15 28 0 34 15 9 24 -25 10 -34 7 -34 -9z"/>
<path d="M1350 2401 c0 -5 9 -11 20 -14 13 -3 20 0 20 9 0 8 -9 14 -20 14 -11
0 -20 -4 -20 -9z"/>
<path d="M1410 2397 c0 -7 11 -14 25 -15 28 -2 34 12 9 22 -24 9 -34 7 -34 -7z"/>
<path d="M2281 2394 c0 -11 3 -14 6 -6 3 7 2 16 -1 19 -3 4 -6 -2 -5 -13z"/>
<path d="M1013 2388 c2 -7 12 -13 22 -13 10 0 20 6 23 13 2 7 -6 12 -23 12
-17 0 -25 -5 -22 -12z"/>
<path d="M1070 2386 c0 -18 35 -22 45 -6 3 6 2 10 -4 10 -5 0 -16 3 -25 6 -11
4 -16 1 -16 -10z"/>
<path d="M1484 2385 c25 -19 36 -19 36 0 0 10 -10 15 -27 15 -27 -1 -27 -1 -9
-15z"/>
<path d="M1540 2385 c0 -7 11 -15 25 -17 16 -3 25 -1 25 7 0 7 -11 15 -25 17
-16 3 -25 1 -25 -7z"/>
<path d="M1132 2378 c5 -15 37 -18 41 -3 1 6 -9 12 -22 13 -16 3 -22 -1 -19
-10z"/>
<path d="M1602 2378 c3 -7 17 -14 32 -16 20 -3 27 0 24 10 -3 7 -17 14 -32 16
-20 3 -27 0 -24 -10z"/>
<path d="M860 2366 c0 -8 6 -16 13 -19 19 -7 41 8 33 22 -10 16 -46 14 -46 -3z"/>
<path d="M1190 2370 c0 -5 11 -10 25 -10 14 0 25 5 25 10 0 6 -11 10 -25 10
-14 0 -25 -4 -25 -10z"/>
<path d="M1252 2368 c7 -20 48 -23 48 -4 0 11 -9 16 -26 16 -16 0 -24 -5 -22
-12z"/>
<path d="M1670 2371 c0 -5 11 -11 25 -13 17 -4 25 -1 25 8 0 8 -11 14 -25 14
-14 0 -25 -4 -25 -9z"/>
<path d="M920 2355 c0 -9 9 -15 25 -15 16 0 25 6 25 15 0 9 -9 15 -25 15 -16
0 -25 -6 -25 -15z"/>
<path d="M980 2355 c0 -8 9 -15 20 -15 24 0 27 15 4 24 -22 9 -24 8 -24 -9z"/>
<path d="M1320 2360 c0 -5 9 -10 20 -10 11 0 20 5 20 10 0 6 -9 10 -20 10 -11
0 -20 -4 -20 -10z"/>
<path d="M1380 2355 c0 -11 7 -15 23 -13 12 2 22 8 22 13 0 6 -10 11 -22 13
-16 2 -23 -2 -23 -13z"/>
<path d="M1047 2353 c-4 -6 0 -14 9 -17 24 -9 36 -7 29 4 -4 6 -10 8 -15 5 -4
-3 -10 0 -12 7 -3 8 -6 9 -11 1z"/>
<path d="M1440 2350 c0 -5 11 -10 25 -10 14 0 25 5 25 10 0 6 -11 10 -25 10
-14 0 -25 -4 -25 -10z"/>
<path d="M1510 2345 c0 -10 10 -15 26 -15 22 0 25 2 14 15 -7 8 -19 15 -26 15
-8 0 -14 -7 -14 -15z"/>
<path d="M1100 2335 c0 -9 9 -15 25 -15 16 0 25 6 25 15 0 9 -9 15 -25 15 -16
0 -25 -6 -25 -15z"/>
<path d="M1160 2336 c0 -11 9 -16 26 -16 31 0 28 23 -4 28 -15 2 -22 -2 -22
-12z"/>
<path d="M1570 2341 c0 -6 3 -11 8 -12 4 0 15 -2 25 -4 10 -2 17 2 14 8 -5 15
-47 22 -47 8z"/>
<path d="M1220 2325 c0 -9 9 -15 25 -15 16 0 25 6 25 15 0 9 -9 15 -25 15 -16
0 -25 -6 -25 -15z"/>
<path d="M1284 2328 c-8 -12 -4 -15 21 -20 12 -2 20 3 20 11 0 16 -32 24 -41
9z"/>
<path d="M1640 2330 c0 -5 11 -10 25 -10 14 0 25 5 25 10 0 6 -11 10 -25 10
-14 0 -25 -4 -25 -10z"/>
<path d="M892 2318 c7 -20 48 -23 48 -4 0 11 -9 16 -26 16 -16 0 -24 -5 -22
-12z"/>
<path d="M950 2316 c0 -11 9 -16 26 -16 31 0 28 23 -4 28 -15 2 -22 -2 -22
-12z"/>
<path d="M1350 2317 c0 -7 8 -13 18 -12 26 2 30 20 5 23 -15 2 -23 -2 -23 -11z"/>
<path d="M1010 2311 c0 -5 7 -12 16 -15 22 -9 24 -8 24 9 0 8 -9 15 -20 15
-11 0 -20 -4 -20 -9z"/>
<path d="M1070 2307 c0 -17 37 -30 46 -15 7 11 5 14 -23 22 -17 5 -23 3 -23
-7z"/>
<path d="M1412 2308 c7 -20 48 -23 48 -4 0 11 -9 16 -26 16 -16 0 -24 -5 -22
-12z"/>
<path d="M1470 2306 c0 -11 9 -16 26 -16 31 0 28 23 -4 28 -15 2 -22 -2 -22
-12z"/>
<path d="M1130 2296 c0 -11 9 -16 26 -16 31 0 28 23 -4 28 -15 2 -22 -2 -22
-12z"/>
<path d="M1192 2291 c4 -18 39 -22 45 -5 2 6 -8 14 -22 16 -20 4 -25 2 -23
-11z"/>
<path d="M1540 2295 c0 -8 6 -15 13 -15 8 0 14 7 14 15 0 8 -6 15 -14 15 -7 0
-13 -7 -13 -15z"/>
<path d="M1610 2296 c0 -10 9 -16 25 -16 14 0 25 5 25 10 0 6 -4 10 -9 10 -5
0 -16 3 -25 6 -11 4 -16 1 -16 -10z"/>
<path d="M860 2286 c0 -11 9 -16 26 -16 31 0 28 23 -4 28 -15 2 -22 -2 -22
-12z"/>
<path d="M1670 2285 c0 -9 9 -15 25 -15 16 0 25 6 25 15 0 9 -9 15 -25 15 -16
0 -25 -6 -25 -15z"/>
<path d="M920 2276 c0 -11 9 -16 26 -16 31 0 28 23 -4 28 -15 2 -22 -2 -22
-12z"/>
<path d="M980 2274 c0 -8 9 -14 20 -14 11 0 20 4 20 9 0 5 -9 11 -20 14 -13 3
-20 0 -20 -9z"/>
<path d="M1260 2280 c0 -5 7 -10 16 -10 8 0 12 5 9 10 -3 6 -10 10 -16 10 -5
0 -9 -4 -9 -10z"/>
<path d="M1383 2280 c4 -18 47 -27 47 -10 0 7 -7 9 -17 6 -9 -4 -20 -1 -25 6
-7 10 -9 9 -5 -2z"/>
<path d="M1040 2265 c0 -8 9 -15 20 -15 24 0 27 15 4 24 -22 9 -24 8 -24 -9z"/>
<path d="M1440 2265 c0 -9 9 -15 25 -15 16 0 25 6 25 15 0 9 -9 15 -25 15 -16
0 -25 -6 -25 -15z"/>
<path d="M1504 2268 c-8 -12 -4 -15 29 -23 20 -5 27 -4 27 8 0 17 -47 29 -56
15z"/>
<path d="M1100 2255 c0 -9 9 -15 25 -15 16 0 25 6 25 15 0 9 -9 15 -25 15 -16
0 -25 -6 -25 -15z"/>
<path d="M1160 2255 c0 -9 9 -15 25 -15 28 0 34 15 9 24 -25 10 -34 7 -34 -9z"/>
<path d="M1570 2255 c0 -9 9 -15 25 -15 16 0 25 6 25 15 0 9 -9 15 -25 15 -16
0 -25 -6 -25 -15z"/>
<path d="M890 2247 c0 -14 20 -27 41 -27 5 0 9 7 9 15 0 8 -4 15 -9 15 -5 0
-16 3 -25 6 -10 4 -16 1 -16 -9z"/>
<path d="M1236 2245 c4 -8 8 -15 10 -15 2 0 4 7 4 15 0 8 -4 15 -10 15 -5 0
-7 -7 -4 -15z"/>
<path d="M1630 2251 c0 -10 24 -21 46 -21 8 0 14 7 14 15 0 10 -10 15 -30 15
-16 0 -30 -4 -30 -9z"/>
<path d="M950 2236 c0 -11 9 -16 26 -16 31 0 28 23 -4 28 -15 2 -22 -2 -22
-12z"/>
<path d="M1286 2242 c-3 -5 1 -9 9 -9 8 0 12 4 9 9 -3 4 -7 8 -9 8 -2 0 -6 -4
-9 -8z"/>
<path d="M1360 2234 c0 -8 5 -12 10 -9 6 4 8 11 5 16 -9 14 -15 11 -15 -7z"/>
<path d="M1012 2228 c7 -19 38 -22 38 -4 0 10 -9 16 -21 16 -12 0 -19 -5 -17
-12z"/>
<path d="M1070 2224 c0 -8 11 -14 25 -14 14 0 25 4 25 9 0 5 -11 11 -25 13
-17 4 -25 1 -25 -8z"/>
<path d="M1417 2233 c-13 -12 -7 -19 18 -21 16 -1 25 3 25 13 0 15 -31 21 -43
8z"/>
<path d="M1470 2227 c0 -8 11 -17 25 -20 20 -3 25 -1 23 12 -4 21 -48 28 -48
8z"/>
<path d="M1130 2216 c0 -11 9 -16 26 -16 31 0 28 23 -4 28 -15 2 -22 -2 -22
-12z"/>
<path d="M1540 2214 c0 -14 3 -14 15 -4 10 9 15 9 15 1 0 -6 5 -11 10 -11 6 0
10 7 10 15 0 9 -9 15 -25 15 -16 0 -25 -6 -25 -16z"/>
<path d="M1600 2217 c0 -19 47 -29 54 -11 3 8 -1 14 -8 14 -8 0 -21 3 -30 6
-10 4 -16 1 -16 -9z"/>
<path d="M860 2206 c0 -11 9 -16 26 -16 31 0 28 23 -4 28 -15 2 -22 -2 -22
-12z"/>
<path d="M1190 2205 c0 -8 3 -15 6 -15 3 0 12 7 20 15 14 13 13 15 -5 15 -12
0 -21 -6 -21 -15z"/>
<path d="M1670 2210 c0 -5 12 -10 28 -10 21 0 24 2 12 10 -20 13 -40 13 -40 0z"/>
<path d="M920 2196 c0 -11 9 -16 26 -16 31 0 28 23 -4 28 -15 2 -22 -2 -22
-12z"/>
<path d="M980 2194 c0 -8 9 -14 20 -14 11 0 20 4 20 9 0 5 -9 11 -20 14 -13 3
-20 0 -20 -9z"/>
<path d="M1040 2184 c0 -8 9 -14 20 -14 11 0 20 6 20 13 0 7 -9 13 -20 14 -11
1 -20 -4 -20 -13z"/>
<path d="M1400 2190 c0 -5 5 -10 10 -10 6 0 10 5 10 10 0 6 -4 10 -10 10 -5 0
-10 -4 -10 -10z"/>
<path d="M1440 2185 c0 -9 9 -15 25 -15 16 0 25 6 25 15 0 9 -9 15 -25 15 -16
0 -25 -6 -25 -15z"/>
<path d="M1102 2178 c5 -15 37 -18 41 -3 1 6 -9 12 -22 13 -16 3 -22 -1 -19
-10z"/>
<path d="M1160 2175 c0 -9 9 -15 25 -15 28 0 34 15 9 24 -25 10 -34 7 -34 -9z"/>
<path d="M1502 2178 c3 -7 15 -15 27 -16 16 -3 22 1 19 10 -3 7 -15 15 -27 16
-16 3 -22 -1 -19 -10z"/>
<path d="M1570 2183 c0 -9 40 -36 45 -31 2 2 -8 11 -21 21 -13 10 -24 14 -24
10z"/>
<path d="M890 2166 c0 -18 31 -29 44 -16 8 8 7 14 -4 20 -22 14 -40 12 -40 -4z"/>
<path d="M1240 2165 c0 -8 5 -15 10 -15 6 0 10 7 10 15 0 8 -4 15 -10 15 -5 0
-10 -7 -10 -15z"/>
<path d="M950 2155 c0 -8 9 -15 20 -15 11 0 20 7 20 15 0 8 -9 15 -20 15 -11
0 -20 -7 -20 -15z"/>
<path d="M1295 2160 c-3 -5 -2 -10 4 -10 5 0 13 5 16 10 3 6 2 10 -4 10 -5 0
-13 -4 -16 -10z"/>
<path d="M1012 2148 c7 -19 38 -22 38 -4 0 10 -9 16 -21 16 -12 0 -19 -5 -17
-12z"/>
<path d="M1070 2144 c0 -8 9 -14 20 -14 11 0 20 4 20 9 0 5 -9 11 -20 14 -13
3 -20 0 -20 -9z"/>
<path d="M1430 2145 c0 -8 7 -15 15 -15 8 0 15 7 15 15 0 8 -7 15 -15 15 -8 0
-15 -7 -15 -15z"/>
<path d="M1470 2145 c0 -12 21 -25 41 -25 21 0 7 28 -16 32 -16 3 -25 1 -25
-7z"/>
<path d="M1122 2138 c3 -7 17 -14 32 -16 20 -3 27 0 24 10 -3 7 -17 14 -32 16
-20 3 -27 0 -24 -10z"/>
<path d="M1540 2136 c0 -9 8 -16 20 -16 11 0 20 5 20 12 0 6 -3 8 -7 5 -3 -4
-12 -2 -20 4 -10 9 -13 8 -13 -5z"/>
<path d="M860 2126 c0 -11 9 -16 26 -16 31 0 28 23 -4 28 -15 2 -22 -2 -22
-12z"/>
<path d="M1190 2125 c0 -9 9 -15 23 -15 14 0 24 6 24 15 0 9 -10 15 -24 15
-14 0 -23 -6 -23 -15z"/>
<path d="M1256 2125 c-3 -9 0 -15 9 -15 9 0 12 6 9 15 -4 8 -7 15 -9 15 -2 0
-5 -7 -9 -15z"/>
<path d="M920 2115 c0 -8 9 -15 20 -15 11 0 20 7 20 15 0 8 -9 15 -20 15 -11
0 -20 -7 -20 -15z"/>
<path d="M980 2116 c0 -7 9 -16 20 -19 24 -6 28 18 4 27 -22 8 -24 8 -24 -8z"/>
<path d="M1040 2106 c0 -10 9 -16 21 -16 24 0 21 23 -4 28 -10 2 -17 -3 -17
-12z"/>
<path d="M1330 2110 c0 -6 7 -10 15 -10 8 0 15 2 15 4 0 2 -7 6 -15 10 -8 3
-15 1 -15 -4z"/>
<path d="M1440 2105 c0 -9 9 -15 25 -15 28 0 34 15 9 24 -25 10 -34 7 -34 -9z"/>
<path d="M1102 2098 c7 -19 38 -22 38 -4 0 10 -9 16 -21 16 -12 0 -19 -5 -17
-12z"/>
<path d="M1160 2097 c0 -19 30 -31 44 -17 12 12 8 15 -21 24 -17 5 -23 3 -23
-7z"/>
<path d="M1400 2100 c0 -5 7 -10 15 -10 8 0 15 5 15 10 0 6 -7 10 -15 10 -8 0
-15 -4 -15 -10z"/>
<path d="M1502 2098 c7 -20 48 -23 48 -4 0 11 -9 16 -26 16 -16 0 -24 -5 -22
-12z"/>
<path d="M890 2085 c0 -9 9 -15 25 -15 28 0 34 15 9 24 -25 10 -34 7 -34 -9z"/>
<path d="M1220 2086 c0 -11 9 -16 26 -16 31 0 28 23 -4 28 -15 2 -22 -2 -22
-12z"/>
<path d="M1570 2091 c0 -5 11 -11 25 -13 17 -4 25 -1 25 8 0 8 -11 14 -25 14
-14 0 -25 -4 -25 -9z"/>
<path d="M1640 2084 c0 -8 10 -14 26 -14 28 0 25 15 -6 23 -13 3 -20 0 -20 -9z"/>
<path d="M950 2075 c0 -8 9 -15 20 -15 11 0 20 7 20 15 0 8 -9 15 -20 15 -11
0 -20 -7 -20 -15z"/>
<path d="M1280 2075 c0 -9 9 -15 25 -15 16 0 25 6 25 15 0 9 -9 15 -25 15 -16
0 -25 -6 -25 -15z"/>
<path d="M1010 2065 c0 -8 9 -15 20 -15 11 0 20 7 20 15 0 8 -9 15 -20 15 -11
0 -20 -7 -20 -15z"/>
<path d="M1340 2071 c0 -5 11 -11 25 -13 17 -4 25 -1 25 8 0 8 -11 14 -25 14
-14 0 -25 -4 -25 -9z"/>
<path d="M1410 2065 c0 -9 9 -15 25 -15 28 0 34 15 9 24 -25 10 -34 7 -34 -9z"/>
<path d="M1070 2060 c0 -5 9 -10 20 -10 11 0 20 5 20 10 0 6 -9 10 -20 10 -11
0 -20 -4 -20 -10z"/>
<path d="M1130 2056 c0 -11 9 -16 26 -16 31 0 28 23 -4 28 -15 2 -22 -2 -22
-12z"/>
<path d="M1470 2061 c0 -9 24 -21 41 -21 5 0 9 7 9 15 0 9 -9 15 -25 15 -14 0
-25 -4 -25 -9z"/>
<path d="M1540 2054 c0 -8 11 -14 25 -14 14 0 25 4 25 9 0 5 -11 11 -25 13
-17 4 -25 1 -25 -8z"/>
<path d="M860 2045 c0 -9 9 -15 25 -15 16 0 25 6 25 15 0 9 -9 15 -25 15 -16
0 -25 -6 -25 -15z"/>
<path d="M1190 2045 c0 -9 9 -15 25 -15 16 0 25 6 25 15 0 9 -9 15 -25 15 -16
0 -25 -6 -25 -15z"/>
<path d="M1250 2047 c0 -19 30 -31 44 -17 12 12 8 15 -21 24 -17 5 -23 3 -23
-7z"/>
<path d="M1600 2045 c0 -9 9 -15 25 -15 28 0 34 15 9 24 -25 10 -34 7 -34 -9z"/>
<path d="M920 2041 c0 -5 7 -12 16 -15 22 -9 24 -8 24 9 0 8 -9 15 -20 15 -11
0 -20 -4 -20 -9z"/>
<path d="M980 2035 c0 -7 9 -15 21 -18 15 -4 19 -1 17 10 -4 19 -38 27 -38 8z"/>
<path d="M1310 2035 c0 -9 9 -15 25 -15 28 0 34 15 9 24 -25 10 -34 7 -34 -9z"/>
<path d="M1672 2038 c7 -20 48 -23 48 -4 0 11 -9 16 -26 16 -16 0 -24 -5 -22
-12z"/>
<path d="M1040 2025 c0 -8 9 -15 20 -15 24 0 27 15 4 24 -22 9 -24 8 -24 -9z"/>
<path d="M1377 2034 c-10 -11 3 -24 24 -24 10 0 19 7 19 15 0 15 -31 21 -43 9z"/>
<path d="M1102 2018 c7 -19 38 -22 38 -4 0 10 -9 16 -21 16 -12 0 -19 -5 -17
-12z"/>
<path d="M1440 2020 c0 -5 4 -10 9 -10 5 0 16 -3 25 -6 11 -4 16 -1 16 10 0
10 -9 16 -25 16 -14 0 -25 -4 -25 -10z"/>
<path d="M1502 2019 c5 -17 48 -25 48 -10 0 6 -4 11 -9 11 -5 0 -17 3 -27 7
-12 4 -15 2 -12 -8z"/>
<path d="M890 2005 c0 -8 9 -15 20 -15 24 0 27 15 4 24 -22 9 -24 8 -24 -9z"/>
<path d="M1160 2011 c0 -12 29 -23 41 -15 18 10 9 24 -16 24 -14 0 -25 -4 -25
-9z"/>
<path d="M1220 2006 c0 -11 9 -16 26 -16 31 0 28 23 -4 28 -15 2 -22 -2 -22
-12z"/>
<path d="M1570 2004 c0 -10 7 -14 22 -12 32 5 35 28 4 28 -17 0 -26 -5 -26
-16z"/>
<path d="M950 1995 c0 -8 9 -15 20 -15 11 0 20 7 20 15 0 8 -9 15 -20 15 -11
0 -20 -7 -20 -15z"/>
<path d="M1280 1995 c0 -9 9 -15 25 -15 16 0 25 6 25 15 0 9 -9 15 -25 15 -16
0 -25 -6 -25 -15z"/>
<path d="M1640 2000 c0 -5 7 -10 15 -10 8 0 18 0 22 -1 4 0 9 4 11 10 2 6 -8
11 -22 11 -14 0 -26 -4 -26 -10z"/>
<path d="M1010 1991 c0 -5 7 -12 16 -15 22 -9 24 -8 24 9 0 8 -9 15 -20 15
-11 0 -20 -4 -20 -9z"/>
<path d="M1070 1985 c0 -7 9 -15 20 -18 12 -3 20 0 20 8 0 7 -9 15 -20 18 -12
3 -20 0 -20 -8z"/>
<path d="M1340 1991 c0 -9 24 -21 41 -21 5 0 9 7 9 15 0 9 -9 15 -25 15 -14 0
-25 -4 -25 -9z"/>
<path d="M1410 1986 c0 -10 9 -16 25 -16 14 0 25 5 25 10 0 6 -4 10 -9 10 -5
0 -16 3 -25 6 -11 4 -16 1 -16 -10z"/>
<path d="M1130 1975 c0 -8 9 -15 20 -15 24 0 27 15 4 24 -22 9 -24 8 -24 -9z"/>
<path d="M1470 1975 c0 -9 9 -15 25 -15 16 0 25 6 25 15 0 9 -9 15 -25 15 -16
0 -25 -6 -25 -15z"/>
<path d="M860 1965 c0 -11 7 -15 23 -13 12 2 22 8 22 13 0 6 -10 11 -22 13
-16 2 -23 -2 -23 -13z"/>
<path d="M1190 1964 c0 -10 7 -14 22 -12 32 5 35 28 4 28 -17 0 -26 -5 -26
-16z"/>
<path d="M1540 1965 c0 -9 9 -15 25 -15 16 0 25 6 25 15 0 9 -9 15 -25 15 -16
0 -25 -6 -25 -15z"/>
<path d="M1600 1965 c0 -8 4 -15 10 -15 5 0 7 7 4 15 -4 8 -8 15 -10 15 -2 0
-4 -7 -4 -15z"/>
<path d="M920 1961 c0 -5 7 -12 16 -15 22 -9 24 -8 24 9 0 8 -9 15 -20 15 -11
0 -20 -4 -20 -9z"/>
<path d="M980 1956 c0 -10 9 -16 21 -16 24 0 21 23 -4 28 -10 2 -17 -3 -17
-12z"/>
<path d="M1252 1958 c7 -20 48 -23 48 -4 0 11 -9 16 -26 16 -16 0 -24 -5 -22
-12z"/>
<path d="M1310 1956 c0 -7 11 -16 25 -18 28 -6 36 16 9 26 -24 9 -34 7 -34 -8z"/>
<path d="M1040 1945 c0 -8 9 -15 20 -15 11 0 20 7 20 15 0 8 -9 15 -20 15 -11
0 -20 -7 -20 -15z"/>
<path d="M1372 1948 c3 -7 17 -14 32 -16 20 -3 27 0 24 10 -3 7 -17 14 -32 16
-20 3 -27 0 -24 -10z"/>
<path d="M1700 1950 c-13 -8 -12 -10 3 -10 9 0 17 5 17 10 0 12 -1 12 -20 0z"/>
<path d="M1100 1935 c0 -8 9 -15 20 -15 11 0 20 7 20 15 0 8 -9 15 -20 15 -11
0 -20 -7 -20 -15z"/>
<path d="M1440 1935 c0 -9 9 -15 25 -15 16 0 25 6 25 15 0 9 -9 15 -25 15 -16
0 -25 -6 -25 -15z"/>
<path d="M1504 1938 c-8 -13 -2 -17 26 -20 12 -2 25 2 27 8 5 14 -45 25 -53
12z"/>
<path d="M890 1925 c0 -11 7 -15 23 -13 12 2 22 8 22 13 0 6 -10 11 -22 13
-16 2 -23 -2 -23 -13z"/>
<path d="M1160 1931 c0 -12 29 -23 41 -15 5 3 7 10 4 15 -8 12 -45 12 -45 0z"/>
<path d="M1220 1925 c0 -9 9 -15 25 -15 28 0 34 15 9 24 -25 10 -34 7 -34 -9z"/>
<path d="M1570 1926 c0 -11 9 -16 26 -16 31 0 28 23 -4 28 -15 2 -22 -2 -22
-12z"/>
<path d="M950 1915 c0 -8 9 -15 20 -15 11 0 20 7 20 15 0 8 -9 15 -20 15 -11
0 -20 -7 -20 -15z"/>
<path d="M1280 1915 c0 -9 9 -15 25 -15 16 0 25 6 25 15 0 9 -9 15 -25 15 -16
0 -25 -6 -25 -15z"/>
<path d="M1636 1916 c7 -19 58 -22 52 -3 -3 6 -17 13 -31 15 -21 3 -26 0 -21
-12z"/>
<path d="M1006 1911 c-3 -5 1 -12 10 -15 25 -10 34 -7 34 9 0 16 -35 21 -44 6z"/>
<path d="M1070 1905 c0 -7 9 -15 20 -18 12 -3 20 0 20 8 0 7 -9 15 -20 18 -12
3 -20 0 -20 -8z"/>
<path d="M1342 1908 c7 -20 48 -23 48 -4 0 11 -9 16 -26 16 -16 0 -24 -5 -22
-12z"/>
<path d="M1412 1901 c2 -9 13 -17 26 -19 31 -5 29 24 -3 31 -20 3 -25 1 -23
-12z"/>
<path d="M1130 1895 c0 -9 9 -15 25 -15 18 0 23 4 19 15 -4 8 -15 15 -25 15
-10 0 -19 -7 -19 -15z"/>
<path d="M1470 1897 c0 -8 11 -17 25 -20 20 -3 25 -1 23 12 -4 21 -48 28 -48
8z"/>
<path d="M860 1885 c0 -11 7 -15 23 -13 12 2 22 8 22 13 0 6 -10 11 -22 13
-16 2 -23 -2 -23 -13z"/>
<path d="M1190 1886 c0 -11 9 -16 26 -16 31 0 28 23 -4 28 -15 2 -22 -2 -22
-12z"/>
<path d="M1537 1894 c-11 -12 3 -24 29 -24 15 0 24 6 24 15 0 15 -40 21 -53 9z"/>
<path d="M923 1877 c2 -7 24 -13 51 -14 33 -1 46 2 43 10 -2 7 -25 13 -51 14
-34 2 -46 -1 -43 -10z"/>
<path d="M1252 1878 c7 -20 48 -23 48 -4 0 11 -9 16 -26 16 -16 0 -24 -5 -22
-12z"/>
<path d="M1310 1874 c0 -8 4 -14 9 -14 5 0 16 -3 25 -6 10 -4 16 -1 16 9 0 8
-11 17 -25 19 -17 4 -25 1 -25 -8z"/>
<path d="M1602 1878 c7 -20 48 -23 48 -4 0 11 -9 16 -26 16 -16 0 -24 -5 -22
-12z"/>
<path d="M1032 1868 c7 -20 48 -23 48 -4 0 11 -9 16 -26 16 -16 0 -24 -5 -22
-12z"/>
<path d="M1372 1868 c5 -15 58 -24 58 -10 0 11 -24 22 -47 22 -8 0 -13 -6 -11
-12z"/>
<path d="M1670 1870 c0 -5 4 -10 9 -10 5 0 16 -3 25 -6 11 -4 16 -1 16 10 0
10 -9 16 -25 16 -14 0 -25 -4 -25 -10z"/>
<path d="M1092 1858 c7 -20 48 -23 48 -4 0 11 -9 16 -26 16 -16 0 -24 -5 -22
-12z"/>
<path d="M1440 1855 c0 -9 9 -15 25 -15 16 0 25 6 25 15 0 9 -9 15 -25 15 -16
0 -25 -6 -25 -15z"/>
<path d="M890 1847 c0 -10 17 -17 51 -21 29 -4 65 -10 80 -13 23 -4 29 -2 29
12 0 13 -6 16 -30 13 -16 -2 -31 -1 -32 2 -2 4 -24 10 -50 14 -38 6 -48 4 -48
-7z"/>
<path d="M1163 1848 c2 -7 12 -13 22 -13 10 0 20 6 23 13 2 7 -6 12 -23 12
-17 0 -25 -5 -22 -12z"/>
<path d="M1220 1847 c0 -19 30 -31 44 -17 12 12 8 15 -21 24 -17 5 -23 3 -23
-7z"/>
<path d="M1500 1851 c0 -9 24 -21 41 -21 5 0 9 7 9 15 0 9 -9 15 -25 15 -14 0
-25 -4 -25 -9z"/>
<path d="M1570 1847 c0 -14 20 -27 41 -27 5 0 9 7 9 15 0 8 -4 15 -9 15 -5 0
-16 3 -25 6 -10 4 -16 1 -16 -9z"/>
<path d="M1280 1836 c0 -11 9 -16 26 -16 31 0 28 23 -4 28 -15 2 -22 -2 -22
-12z"/>
<path d="M1630 1835 c0 -10 10 -15 30 -15 32 0 40 14 14 24 -27 10 -44 7 -44
-9z"/>
<path d="M1060 1825 c0 -8 4 -15 9 -15 5 0 16 -3 25 -6 10 -4 16 -1 16 9 0 14
-20 27 -41 27 -5 0 -9 -7 -9 -15z"/>
<path d="M1340 1825 c0 -9 9 -15 25 -15 16 0 25 6 25 15 0 9 -9 15 -25 15 -16
0 -25 -6 -25 -15z"/>
<path d="M860 1811 c0 -17 6 -21 34 -21 19 0 41 -3 50 -6 10 -4 16 -1 16 9 0
19 -31 31 -40 16 -5 -7 -9 -7 -11 -1 -2 5 -14 13 -26 16 -19 6 -23 4 -23 -13z"/>
<path d="M1120 1815 c0 -10 10 -15 30 -15 32 0 40 14 14 24 -27 10 -44 7 -44
-9z"/>
<path d="M1410 1815 c0 -9 9 -15 25 -15 16 0 25 6 25 15 0 9 -9 15 -25 15 -16
0 -25 -6 -25 -15z"/>
<path d="M1470 1815 c0 -12 21 -25 41 -25 21 0 7 28 -16 32 -16 3 -25 1 -25
-7z"/>
<path d="M1190 1806 c0 -11 9 -16 26 -16 31 0 28 23 -4 28 -15 2 -22 -2 -22
-12z"/>
<path d="M1537 1814 c-11 -12 3 -24 29 -24 27 0 32 15 8 24 -20 8 -29 8 -37 0z"/>
<path d="M980 1796 c0 -10 9 -16 21 -16 24 0 21 23 -4 28 -10 2 -17 -3 -17
-12z"/>
<path d="M1250 1795 c0 -9 9 -15 25 -15 16 0 25 6 25 15 0 9 -9 15 -25 15 -16
0 -25 -6 -25 -15z"/>
<path d="M1600 1795 c0 -9 9 -15 25 -15 16 0 25 6 25 15 0 9 -9 15 -25 15 -16
0 -25 -6 -25 -15z"/>
<path d="M1032 1788 c7 -20 48 -23 48 -4 0 11 -9 16 -26 16 -16 0 -24 -5 -22
-12z"/>
<path d="M1312 1788 c7 -20 48 -23 48 -4 0 11 -9 16 -26 16 -16 0 -24 -5 -22
-12z"/>
<path d="M1377 1794 c-15 -15 -6 -24 23 -24 17 0 30 5 30 10 0 6 -4 10 -9 10
-5 0 -16 2 -23 5 -8 3 -17 2 -21 -1z"/>
<path d="M1670 1785 c0 -9 9 -15 25 -15 16 0 25 6 25 15 0 9 -9 15 -25 15 -16
0 -25 -6 -25 -15z"/>
<path d="M1092 1779 c3 -8 18 -14 36 -14 16 0 34 -3 38 -7 13 -14 44 -9 44 7
0 9 -9 15 -22 15 -13 0 -40 3 -62 7 -31 5 -38 3 -34 -8z"/>
<path d="M1440 1776 c0 -11 9 -16 26 -16 31 0 28 23 -4 28 -15 2 -22 -2 -22
-12z"/>
<path d="M886 1765 c4 -8 14 -15 24 -15 10 0 32 -3 49 -6 25 -5 31 -3 31 11 0
14 -6 16 -30 13 -16 -3 -30 -1 -30 4 0 4 -11 8 -25 8 -18 0 -23 -4 -19 -15z"/>
<path d="M1220 1765 c0 -12 21 -25 41 -25 21 0 7 28 -16 32 -16 3 -25 1 -25
-7z"/>
<path d="M1500 1765 c0 -9 9 -15 25 -15 16 0 25 6 25 15 0 9 -9 15 -25 15 -16
0 -25 -6 -25 -15z"/>
<path d="M1280 1755 c0 -8 4 -15 9 -15 5 0 16 -3 25 -6 10 -4 16 -1 16 9 0 14
-20 27 -41 27 -5 0 -9 -7 -9 -15z"/>
<path d="M1570 1755 c0 -9 9 -15 25 -15 16 0 25 6 25 15 0 9 -9 15 -25 15 -16
0 -25 -6 -25 -15z"/>
<path d="M1002 1748 c7 -20 48 -23 48 -4 0 11 -9 16 -26 16 -16 0 -24 -5 -22
-12z"/>
<path d="M1065 1749 c-8 -13 -6 -15 23 -23 26 -9 32 18 6 28 -21 8 -22 8 -29
-5z"/>
<path d="M1340 1745 c0 -9 9 -15 25 -15 16 0 25 6 25 15 0 9 -9 15 -25 15 -16
0 -25 -6 -25 -15z"/>
<path d="M1630 1751 c0 -10 24 -21 46 -21 8 0 14 7 14 15 0 10 -10 15 -30 15
-16 0 -30 -4 -30 -9z"/>
<path d="M1125 1740 c-9 -14 -6 -17 25 -22 17 -2 25 2 25 12 0 18 -40 26 -50
10z"/>
<path d="M1410 1736 c0 -11 9 -16 26 -16 31 0 28 23 -4 28 -15 2 -22 -2 -22
-12z"/>
<path d="M1190 1726 c0 -11 9 -16 26 -16 31 0 28 23 -4 28 -15 2 -22 -2 -22
-12z"/>
<path d="M1470 1730 c0 -5 4 -10 9 -10 5 0 16 -3 25 -6 11 -4 16 -1 16 10 0
10 -9 16 -25 16 -14 0 -25 -4 -25 -10z"/>
<path d="M1536 1724 c-3 -7 2 -15 10 -18 26 -10 44 -7 44 8 0 18 -47 27 -54
10z"/>
<path d="M1250 1715 c0 -9 9 -15 25 -15 16 0 25 6 25 15 0 9 -9 15 -25 15 -16
0 -25 -6 -25 -15z"/>
<path d="M1600 1716 c0 -7 11 -16 25 -18 28 -6 36 16 9 26 -24 9 -34 7 -34 -8z"/>
<path d="M1312 1708 c7 -20 48 -23 48 -4 0 11 -9 16 -26 16 -16 0 -24 -5 -22
-12z"/>
<path d="M1670 1705 c0 -9 9 -15 25 -15 16 0 25 6 25 15 0 9 -9 15 -25 15 -16
0 -25 -6 -25 -15z"/>
<path d="M1370 1701 c0 -10 24 -21 46 -21 8 0 14 7 14 15 0 10 -10 15 -30 15
-16 0 -30 -4 -30 -9z"/>
<path d="M1440 1696 c0 -13 20 -26 41 -26 15 0 10 27 -7 34 -24 9 -34 7 -34
-8z"/>
<path d="M1500 1686 c0 -15 48 -28 56 -15 9 15 -6 29 -32 29 -14 0 -24 -6 -24
-14z"/>
<path d="M1570 1676 c0 -11 9 -16 26 -16 31 0 28 23 -4 28 -15 2 -22 -2 -22
-12z"/>
<path d="M1632 1668 c7 -20 58 -23 58 -4 0 11 -10 16 -31 16 -20 0 -29 -4 -27
-12z"/>
<path d="M2085 1630 c-3 -5 -2 -10 4 -10 5 0 13 5 16 10 3 6 2 10 -4 10 -5 0
-13 -4 -16 -10z"/>
<path d="M1922 1123 c-7 -22 -12 -53 -11 -69 0 -20 5 -10 15 30 17 69 14 98
-4 39z"/>
<path d="M736 817 c-3 -12 -7 -85 -10 -162 -3 -77 -9 -154 -12 -172 -6 -30 -4
-32 29 -38 51 -10 81 9 72 43 -5 15 -11 99 -14 187 l-6 160 -27 2 c-22 1 -29
-3 -32 -20z"/>
<path d="M840 813 c0 -21 44 -75 79 -99 33 -21 55 -27 125 -31 65 -4 90 -2
102 8 20 17 182 17 253 0 25 -5 51 -6 59 -2 10 6 4 10 -19 14 -19 3 -77 15
-129 27 -130 27 -449 90 -461 90 -5 0 -9 -3 -9 -7z"/>
</g>
</svg>
